grf
version=1
nRows=6
nColumns=37
inDegrees=no
endheader
time	ground_force_1_vx	ground_force_1_vy	ground_force_1_vz	ground_force_1_px	ground_force_1_py	ground_force_1_pz	ground_moment_1_mx	ground_moment_1_my	ground_moment_1_mz	ground_force_2_vx	ground_force_2_vy	ground_force_2_vz	ground_force_2_px	ground_force_2_py	ground_force_2_pz	ground_moment_2_mx	ground_moment_2_my	ground_moment_2_mz	ground_force_3_vx	ground_force_3_vy	ground_force_3_vz	ground_force_3_px	ground_force_3_py	ground_force_3_pz	ground_moment_3_mx	ground_moment_3_my	ground_moment_3_mz	ground_force_4_vx	ground_force_4_vy	ground_force_4_vz	ground_force_4_px	ground_force_4_py	ground_force_4_pz	ground_moment_4_mx	ground_moment_4_my	ground_moment_4_mz
      0.00000000	      0.00000000	     -0.00000000	      0.00000000	      0.00000000	      0.00000000	      0.00000000	      0.00000000	      0.00000000	      0.00000000	     -7.07065582	     58.79728317	   -408.27600098	   -270.39711989	  -1110.76019114	      0.00000000	      0.00000000	      0.00000000	   1633.31371672	      6.89660363	    -59.52881683	   -371.06860352	   -303.57815763	   -694.95819883	      0.00000000	      0.00000000	     -0.00000000	  -1319.31778465	      0.00000000	     -0.00000000	      0.00000000	      0.00000000	      0.00000000	      0.00000000	      0.00000000	      0.00000000	      0.00000000
      0.01000000	      0.00000000	     -0.00000000	      0.00000000	      0.00000000	      0.00000000	      0.00000000	      0.00000000	      0.00000000	      0.00000000	     -7.24914932	     58.22840881	   -407.58227539	   -270.90951369	  -1110.43396206	      0.00000000	      0.00000000	      0.00000000	   1533.61731943	      6.91943603	    -59.41769470	   -370.70886230	   -304.19587161	   -695.27061880	      0.00000000	      0.00000000	     -0.00000000	  -1459.98475675	      0.00000000	     -0.00000000	      0.00000000	      0.00000000	      0.00000000	      0.00000000	      0.00000000	      0.00000000	      0.00000000
      0.02000000	      0.00000000	     -0.00000000	      0.00000000	      0.00000000	      0.00000000	      0.00000000	      0.00000000	      0.00000000	      0.00000000	     -7.40794277	     58.88511276	   -407.21649170	   -271.04587868	  -1110.27694375	      0.00000000	      0.00000000	      0.00000000	   1662.46012982	      7.22832683	    -59.59744326	   -370.81161499	   -303.61260987	   -696.11370439	      0.00000000	      0.00000000	     -0.00000000	  -1470.33685548	      0.00000000	     -0.00000000	      0.00000000	      0.00000000	      0.00000000	      0.00000000	      0.00000000	      0.00000000	      0.00000000
      0.03000000	      0.00000000	     -0.00000000	      0.00000000	      0.00000000	      0.00000000	      0.00000000	      0.00000000	      0.00000000	      0.00000000	     -7.33474302	     58.22537613	   -407.73880005	   -271.50406237	  -1110.15386888	      0.00000000	      0.00000000	      0.00000000	   1805.59988839	      7.40908722	    -59.57124775	   -371.40661621	   -303.18511706	   -695.53858808	      0.00000000	      0.00000000	     -0.00000000	  -1455.20320702	      0.00000000	     -0.00000000	      0.00000000	      0.00000000	      0.00000000	      0.00000000	      0.00000000	      0.00000000	      0.00000000
      0.04000000	      0.00000000	     -0.00000000	      0.00000000	      0.00000000	      0.00000000	      0.00000000	      0.00000000	      0.00000000	      0.00000000	     -7.40447235	     58.98103333	   -407.21649170	   -270.68632543	  -1108.58541031	      0.00000000	      0.00000000	      0.00000000	   1649.50623592	      7.13555909	    -59.90512147	   -372.10461426	   -303.33490198	   -695.18245631	      0.00000000	      0.00000000	     -0.00000000	  -1335.22746508	      0.00000000	     -0.00000000	      0.00000000	      0.00000000	      0.00000000	      0.00000000	      0.00000000	      0.00000000	      0.00000000
      0.05000000	      0.00000000	     -0.00000000	      0.00000000	      0.00000000	      0.00000000	      0.00000000	      0.00000000	      0.00000000	      0.00000000	     -7.38542271	     58.72223663	   -409.39379883	   -270.98572883	  -1110.54606092	      0.00000000	      0.00000000	      0.00000000	   1707.39583578	      7.25514317	    -59.90115801	   -372.19561768	   -303.40499812	   -695.72306180	      0.00000000	      0.00000000	     -0.00000000	  -1373.82955442	      0.00000000	     -0.00000000	      0.00000000	      0.00000000	      0.00000000	      0.00000000	      0.00000000	      0.00000000	      0.00000000
